# Blender 3.6.5
# www.blender.org
mtllib Backing.mtl
o Cube
v -1.000000 -0.033552 1.000000
v -1.000000 -0.033552 -1.000000
v 1.000000 -0.033552 1.000000
v 1.000000 -0.033552 -1.000000
v -0.879020 0.070842 0.879020
v -1.000000 0.015303 1.000000
v -0.879020 0.070842 -0.879020
v -1.000000 0.015303 -1.000000
v 0.879020 0.070842 0.879020
v 1.000000 0.015303 1.000000
v 0.879020 0.070842 -0.879020
v 1.000000 0.015303 -1.000000
v -0.962202 0.070842 0.962202
v -0.962202 0.070842 -0.962202
v 0.962202 0.070842 -0.962202
v 0.962202 0.070842 0.962202
v -0.879020 0.025068 0.879020
v -0.879020 0.025068 -0.879020
v 0.879020 0.025068 -0.879020
v 0.879020 0.025068 0.879020
vn -0.0000 -0.0000 -1.0000
vn 1.0000 -0.0000 -0.0000
vn -1.0000 -0.0000 -0.0000
vn -0.0000 -1.0000 -0.0000
vn -0.8267 0.5626 -0.0000
vn -0.0000 0.5626 -0.8267
vn 0.8267 0.5626 -0.0000
vn -0.0000 0.5626 0.8267
vn -0.0000 -0.0000 1.0000
vn -0.0000 1.0000 -0.0000
vt 0.423249 0.066573
vt 0.259389 0.066573
vt 0.315598 0.072895
vt 0.346290 0.072895
vt 0.346290 0.073039
vt 0.315598 0.073039
vt 0.315598 0.072606
vt 0.346290 0.072606
vt 0.346290 0.072750
vt 0.315598 0.072750
vt 0.345256 0.072557
vt 0.350253 0.072557
vt 0.350253 0.072883
vt 0.345256 0.072883
vt 0.427186 0.070084
vt 0.427225 0.005440
vt 0.428503 0.003604
vt 0.428503 0.071340
vt 0.255077 0.005429
vt 0.253403 0.004059
vt 0.254992 0.070323
vt 0.253335 0.070996
vt 0.253414 0.004059
vt 0.253336 0.070983
vt 0.346290 0.073183
vt 0.315598 0.073183
vt 0.424195 0.068008
vt 0.424223 0.007795
vt 0.427049 0.005715
vt 0.427125 0.069849
vt 0.424226 0.007795
vt 0.258046 0.007758
vt 0.255008 0.005457
vt 0.258067 0.067793
vt 0.254973 0.070171
vt 0.258067 0.067779
vt 0.424236 0.067956
vt 0.260996 0.010826
vt 0.420802 0.010826
vt 0.420802 0.065126
vt 0.260996 0.065126
vt 0.259389 0.008633
vt 0.423249 0.008633
s 0
usemtl Material.001
f 5/1/1 9/2/1 20/2/1 17/1/1
f 4/3/2 12/4/2 10/5/2 3/6/2
f 1/7/3 6/8/3 8/9/3 2/10/3
f 2/11/4 4/12/4 3/13/4 1/14/4
f 2/10/1 8/9/1 12/4/1 4/3/1
f 13/15/5 14/16/5 8/17/5 6/18/5
f 14/16/6 15/19/6 12/20/6 8/17/6
f 15/19/7 16/21/7 10/22/7 12/23/7
f 16/21/8 13/15/8 6/18/8 10/24/8
f 3/6/9 10/5/9 6/25/9 1/26/9
f 5/27/10 7/28/10 14/29/10 13/30/10
f 7/31/10 11/32/10 15/33/10 14/29/10
f 11/32/10 9/34/10 16/35/10 15/33/10
f 9/36/10 5/37/10 13/30/10 16/35/10
f 19/38/10 18/39/10 17/40/10 20/41/10
f 11/42/9 7/43/9 18/43/9 19/42/9
f 9/2/3 11/42/3 19/42/3 20/2/3
f 7/43/2 5/1/2 17/1/2 18/43/2
