# Blender 3.6.5
# www.blender.org
mtllib Backing.mtl
o Cube
v -1.000000 -0.033552 1.000000
v -1.000000 -0.033552 -1.000000
v 1.000000 -0.033552 1.000000
v 1.000000 -0.033552 -1.000000
v -0.879020 0.070842 0.879020
v -1.000000 0.015303 1.000000
v -0.879020 0.070842 -0.879020
v -1.000000 0.015303 -1.000000
v 0.879020 0.070842 0.879020
v 1.000000 0.015303 1.000000
v 0.879020 0.070842 -0.879020
v 1.000000 0.015303 -1.000000
v -0.962202 0.070842 0.962202
v -0.962202 0.070842 -0.962202
v 0.962202 0.070842 -0.962202
v 0.962202 0.070842 0.962202
v -0.879020 0.025068 0.879020
v -0.879020 0.025068 -0.879020
v 0.879020 0.025068 -0.879020
v 0.879020 0.025068 0.879020
vn -0.0000 -0.0000 -1.0000
vn 1.0000 -0.0000 -0.0000
vn -1.0000 -0.0000 -0.0000
vn -0.0000 -1.0000 -0.0000
vn -0.8267 0.5626 -0.0000
vn -0.0000 0.5626 -0.8267
vn 0.8267 0.5626 -0.0000
vn -0.0000 0.5626 0.8267
vn -0.0000 -0.0000 1.0000
vn -0.0000 1.0000 -0.0000
vt 0.240657 0.864554
vt 0.129531 0.864554
vt 0.213137 0.872756
vt 0.243829 0.872756
vt 0.243829 0.873459
vt 0.213137 0.873459
vt 0.213137 0.871348
vt 0.243829 0.871348
vt 0.243829 0.872052
vt 0.213137 0.872052
vt 0.000087 0.500000
vt 0.250043 0.500000
vt 0.250043 0.749957
vt 0.000087 0.749957
vt 0.246574 0.870228
vt 0.246574 0.752792
vt 0.248217 0.751148
vt 0.248217 0.873310
vt 0.127287 0.752792
vt 0.125849 0.751148
vt 0.127287 0.870228
vt 0.125654 0.872282
vt 0.125654 0.751148
vt 0.125849 0.873310
vt 0.243829 0.874163
vt 0.213137 0.874163
vt 0.239492 0.864344
vt 0.239492 0.754939
vt 0.244154 0.751282
vt 0.244154 0.869452
vt 0.240609 0.754939
vt 0.128078 0.754939
vt 0.125984 0.751282
vt 0.128078 0.864344
vt 0.125984 0.869452
vt 0.128078 0.863638
vt 0.240609 0.863638
vt 0.139075 0.761712
vt 0.233055 0.761712
vt 0.233055 0.855692
vt 0.139075 0.855692
vt 0.129531 0.753148
vt 0.240657 0.753148
s 0
usemtl 
f 5/1/1 9/2/1 20/2/1 17/1/1
f 4/3/2 12/4/2 10/5/2 3/6/2
f 1/7/3 6/8/3 8/9/3 2/10/3
f 2/11/4 4/12/4 3/13/4 1/14/4
f 2/10/1 8/9/1 12/4/1 4/3/1
f 13/15/5 14/16/5 8/17/5 6/18/5
f 14/16/6 15/19/6 12/20/6 8/17/6
f 15/19/7 16/21/7 10/22/7 12/23/7
f 16/21/8 13/15/8 6/18/8 10/24/8
f 3/6/9 10/5/9 6/25/9 1/26/9
f 5/27/10 7/28/10 14/29/10 13/30/10
f 7/31/10 11/32/10 15/33/10 14/29/10
f 11/32/10 9/34/10 16/35/10 15/33/10
f 9/36/10 5/37/10 13/30/10 16/35/10
f 19/38/10 18/39/10 17/40/10 20/41/10
f 11/42/9 7/43/9 18/43/9 19/42/9
f 9/2/3 11/42/3 19/42/3 20/2/3
f 7/43/2 5/1/2 17/1/2 18/43/2
